# xmcd CD database file
#
# Track frame offsets:
#	150
#	20835
#	35531
#	58903
#	77816
#	101307
#	106819
#	126076
#	147898
#	165413
#	181945
#	196030
#	217874
#	239102
#
# Disc length: 3584 seconds
#
# Revision: 11
# Processed by: cddbd v1.5PL3 Copyright (c) Steve Scherf et al.
# Submitted via: CDex 1.50
#
DISCID=ba0dfe0e
DTITLE=THE YELLOW MONKEY - 8
DYEAR=1900
DGENRE=Rock
TTITLE0=????
TTITLE1=????? No.9
TTITLE2=GIRLIE
TTITLE3=DEAR FEELING
TTITLE4=HEART BREAK
TTITLE5=??????
TTITLE6=SHOCK HEARTS
TTITLE7=???????????
TTITLE8=????
TTITLE9=???
TTITLE10=STONE BUTTERFLY
TTITLE11=???
TTITLE12=??????
TTITLE13=?
EXTD=
EXTT0=
EXTT1=
EXTT2=
EXTT3=
EXTT4=
EXTT5=
EXTT6=
EXTT7=
EXTT8=
EXTT9=
EXTT10=
EXTT11=
EXTT12=
EXTT13=
PLAYORDER=
